<svg width="303" height="196" viewBox="0 0 303 196" fill="none" xmlns="http://www.w3.org/2000/svg">
<rect width="303" height="196" fill="#011210"/>
<path d="M114.018 93.5687H132.108V98.932H126.861V111.672H119.343V98.932H114.018V93.5687Z" fill="#F8F5EC"/>
<path d="M141.213 100.926L137.415 111.672H130.21L137.258 93.5687H145.089L152.392 111.672H145.089L141.213 100.926Z" fill="#F8F5EC"/>
<path d="M150.628 93.5687H168.718V98.932H163.55V111.672H156.032V98.932H150.628V93.5687Z" fill="#F8F5EC"/>
<path d="M177.823 100.926L174.025 111.672H166.82L173.888 93.5687H181.699L189.002 111.672H181.699L177.823 100.926Z" fill="#F8F5EC"/>
<path d="M178.136 60.2954C177.451 59.0393 176.531 57.8031 175.473 56.6866C172.967 54.0349 169.463 51.9015 165.293 50.4261C161.123 48.871 156.404 48.1532 151.549 48.1532C146.694 48.1532 141.897 48.8909 137.727 50.4261C133.616 51.9015 130.131 54.0548 127.625 56.6866C126.568 57.7832 125.647 59.0393 124.962 60.2954C130.346 59.0393 139.548 57.4243 148.123 57.205C148.965 57.205 149.572 57.4243 149.865 57.9427C150.316 58.4611 150.316 60.4549 150.316 61.4119L150.081 84.4402C150.531 84.4402 151.001 84.5199 151.529 84.5199C151.98 84.5199 152.508 84.5199 152.978 84.4402L152.743 61.4119C152.743 60.4549 152.665 58.4611 153.135 57.9427C153.507 57.4243 154.114 57.205 154.877 57.205C163.472 57.4243 172.732 59.0393 178.136 60.2954Z" fill="#F8F5EC"/>
<path d="M179.272 63.3247C171.362 61.63 166.057 61.2711 160.888 61.0518C156.326 60.7527 156.326 62.3677 156.718 65.3185C156.796 65.5378 156.796 65.7572 156.875 65.9765C158.402 74.7292 160.301 82.2458 160.594 83.5019C171.675 81.0695 179.663 74.3105 179.663 66.3553C179.644 65.2986 179.507 64.2817 179.272 63.3247Z" fill="#F8F5EC"/>
<path d="M146.301 65.2985C146.752 62.3477 146.673 60.7327 142.21 61.0318C136.963 61.2511 131.735 61.6299 123.826 63.3047C123.591 64.2617 123.454 65.2985 123.454 66.3153C123.454 69.7048 124.903 73.0942 127.624 75.9653C130.13 78.5373 133.634 80.6706 137.726 82.146C139.253 82.7442 140.839 83.1828 142.444 83.5417C142.758 82.2856 144.716 74.6294 146.243 65.7371C146.301 65.5976 146.301 65.458 146.301 65.2985Z" fill="#F8F5EC"/>
<path d="M71.6121 129.783H89.663V135.146H84.4356V147.847H76.9177V135.146H71.6121V129.783Z" fill="#F8F5EC"/>
<path d="M98.7662 137.12L94.9681 147.847H87.7634L94.8115 129.783H102.623L109.906 147.847H102.623L98.7662 137.12Z" fill="#F8F5EC"/>
<path d="M108.163 129.783H126.214V135.146H121.045V147.847H113.547V135.146H108.163V129.783Z" fill="#F8F5EC"/>
<path d="M135.3 137.12L131.522 147.847H124.317L131.365 129.783H139.177L146.46 147.847H139.177L135.3 137.12Z" fill="#F8F5EC"/>
<path fill-rule="evenodd" clip-rule="evenodd" d="M221.012 137.436H223.244C224.614 137.436 225.476 137.376 225.847 137.276C226.219 137.157 226.513 136.937 226.748 136.578C226.983 136.219 227.1 135.761 227.1 135.183C227.1 134.624 226.983 134.186 226.748 133.847C226.513 133.508 226.2 133.269 225.808 133.149C225.534 133.069 224.712 133.029 223.361 133.029H221.012V137.436ZM217.997 147.524V130.039H224.34C225.965 130.039 227.12 130.198 227.825 130.517C228.51 130.836 229.097 131.375 229.528 132.152C229.978 132.93 230.194 133.867 230.194 134.943C230.194 136.319 229.861 137.416 229.176 138.253C228.491 139.091 227.531 139.609 226.259 139.828C226.905 140.267 227.433 140.765 227.864 141.284C228.295 141.822 228.863 142.759 229.587 144.135L231.388 147.544H227.805L225.613 143.736C224.829 142.36 224.301 141.503 224.007 141.164C223.733 140.825 223.42 140.586 223.107 140.446C222.793 140.327 222.284 140.247 221.599 140.247H221.012V147.544H217.997V147.524ZM204.116 147.524V130.039H215.178V132.989H207.111V136.857H214.61V139.788H207.111V144.553H215.452V147.504H204.116V147.524ZM186.535 147.524L182.972 130.039H186.065L188.297 142.041L191.018 130.039H194.601L197.224 142.241L199.515 130.039H202.55L198.928 147.524H195.717L192.741 134.465L189.785 147.524H186.535ZM170.716 138.771C170.716 140.785 171.107 142.281 171.91 143.297C172.713 144.314 173.692 144.813 174.866 144.813C176.041 144.813 177.02 144.314 177.803 143.317C178.586 142.32 178.958 140.785 178.958 138.732C178.958 136.698 178.586 135.203 177.823 134.226C177.059 133.249 176.08 132.77 174.847 132.77C173.633 132.77 172.615 133.269 171.851 134.246C171.107 135.203 170.716 136.718 170.716 138.771ZM167.623 138.891C167.623 136.798 167.936 135.103 168.582 133.747C169.228 132.391 170.07 131.394 171.088 130.737C172.126 130.079 173.379 129.74 174.847 129.74C176.981 129.74 178.723 130.517 180.074 132.092C181.425 133.667 182.091 135.88 182.091 138.791C182.091 141.722 181.386 143.995 179.957 145.65C178.704 147.106 177.02 147.843 174.866 147.843C172.713 147.843 171.01 147.125 169.757 145.69C168.327 144.015 167.623 141.762 167.623 138.891ZM157.325 132.989V137.954H158.989C160.105 137.954 160.868 137.874 161.26 137.735C161.651 137.595 161.984 137.316 162.239 136.917C162.493 136.519 162.63 136.04 162.63 135.462C162.63 134.884 162.493 134.385 162.239 134.006C161.965 133.608 161.651 133.348 161.26 133.209C160.868 133.069 160.046 133.009 158.793 133.009H157.325V132.989ZM154.31 147.524V130.039H159.145C160.947 130.039 162.121 130.118 162.689 130.298C163.57 130.557 164.294 131.135 164.882 132.032C165.449 132.91 165.743 134.046 165.743 135.442C165.743 136.698 165.489 137.775 164.999 138.612C164.51 139.469 163.883 140.067 163.139 140.406C162.395 140.745 161.123 140.925 159.302 140.925H157.325V147.524H154.31Z" fill="#F8F5EC"/>
</svg>
